<?xml version="1.0" encoding="UTF-8" standalone="no"?>
<svg
   width="18"
   height="20"
   version="1.1"
   id="svg1"
   sodipodi:docname="icon-apple_hover.svg"
   inkscape:version="1.3.2 (091e20e, 2023-11-25, custom)"
   xmlns:inkscape="http://www.inkscape.org/namespaces/inkscape"
   xmlns:sodipodi="http://sodipodi.sourceforge.net/DTD/sodipodi-0.dtd"
   xmlns="http://www.w3.org/2000/svg"
   xmlns:svg="http://www.w3.org/2000/svg">
  <defs
     id="defs1" />
  <sodipodi:namedview
     id="namedview1"
     pagecolor="#ffffff"
     bordercolor="#666666"
     borderopacity="1.0"
     inkscape:showpageshadow="2"
     inkscape:pageopacity="0.0"
     inkscape:pagecheckerboard="0"
     inkscape:deskcolor="#d1d1d1"
     inkscape:zoom="39.986888"
     inkscape:cx="6.7272051"
     inkscape:cy="9.5906437"
     inkscape:window-width="2560"
     inkscape:window-height="1369"
     inkscape:window-x="-8"
     inkscape:window-y="-8"
     inkscape:window-maximized="1"
     inkscape:current-layer="svg1" />
  <path
     d="M12.683 4.681c1.359 0 2.798.745 3.821 2.029-3.356 1.851-2.812 6.674.58 7.965-.467 1.04-.69 1.504-1.292 2.425-.839 1.285-2.02 2.886-3.486 2.897-1.302.014-1.637-.852-3.403-.842-1.766.009-2.134.857-3.437.845C4 19.987 2.88 18.542 2.042 17.257-.302 13.667-.549 9.45.897 7.207c1.029-1.592 2.651-2.523 4.175-2.523 1.551 0 2.527.856 3.812.856 1.247 0 2.005-.859 3.8-.859ZM12.291 0c.178 1.215-.315 2.405-.968 3.246-.697.904-1.901 1.603-3.066 1.566-.213-1.163.332-2.36.995-3.167C9.978.756 11.224.074 12.291 0Z"
     fill="#FCFAF9"
     id="path1"
     style="fill:#191826;fill-opacity:1" />
</svg>
